<svg width="32" height="32" viewBox="0 0 32 32" fill="none" xmlns="http://www.w3.org/2000/svg">
    <path d="M9.0625 17.7188C9.0625 17.495 9.15798 17.2804 9.32793 17.1221C9.49789 16.9639 9.7284 16.875 9.96875 16.875H13.5938C13.8341 16.875 14.0646 16.9639 14.2346 17.1221C14.4045 17.2804 14.5 17.495 14.5 17.7188C14.5 17.9425 14.4045 18.1571 14.2346 18.3154C14.0646 18.4736 13.8341 18.5625 13.5938 18.5625H9.96875C9.7284 18.5625 9.49789 18.4736 9.32793 18.3154C9.15798 18.1571 9.0625 17.9425 9.0625 17.7188ZM9.0625 14.3438C9.0625 14.12 9.15798 13.9054 9.32793 13.7471C9.49789 13.5889 9.7284 13.5 9.96875 13.5H19.0312C19.2716 13.5 19.5021 13.5889 19.6721 13.7471C19.842 13.9054 19.9375 14.12 19.9375 14.3438C19.9375 14.5675 19.842 14.7821 19.6721 14.9404C19.5021 15.0986 19.2716 15.1875 19.0312 15.1875H9.96875C9.7284 15.1875 9.49789 15.0986 9.32793 14.9404C9.15798 14.7821 9.0625 14.5675 9.0625 14.3438ZM9.0625 10.9688C9.0625 10.745 9.15798 10.5304 9.32793 10.3721C9.49789 10.2139 9.7284 10.125 9.96875 10.125H19.0312C19.2716 10.125 19.5021 10.2139 19.6721 10.3721C19.842 10.5304 19.9375 10.745 19.9375 10.9688C19.9375 11.1925 19.842 11.4071 19.6721 11.5654C19.5021 11.7236 19.2716 11.8125 19.0312 11.8125H9.96875C9.7284 11.8125 9.49789 11.7236 9.32793 11.5654C9.15798 11.4071 9.0625 11.1925 9.0625 10.9688ZM9.0625 7.59375C9.0625 7.36997 9.15798 7.15536 9.32793 6.99713C9.49789 6.83889 9.7284 6.75 9.96875 6.75H19.0312C19.2716 6.75 19.5021 6.83889 19.6721 6.99713C19.842 7.15536 19.9375 7.36997 19.9375 7.59375C19.9375 7.81753 19.842 8.03214 19.6721 8.19037C19.5021 8.34861 19.2716 8.4375 19.0312 8.4375H9.96875C9.7284 8.4375 9.49789 8.34861 9.32793 8.19037C9.15798 8.03214 9.0625 7.81753 9.0625 7.59375Z"
          fill="white"/>
    <path d="M5.4375 0H23.5625C24.5239 0 25.4459 0.355579 26.1258 0.988515C26.8056 1.62145 27.1875 2.47989 27.1875 3.375V23.625C27.1875 24.5201 26.8056 25.3785 26.1258 26.0115C25.4459 26.6444 24.5239 27 23.5625 27H5.4375C4.47609 27 3.55406 26.6444 2.87424 26.0115C2.19442 25.3785 1.8125 24.5201 1.8125 23.625V21.9375H3.625V23.625C3.625 24.0726 3.81596 24.5018 4.15587 24.8182C4.49578 25.1347 4.9568 25.3125 5.4375 25.3125H23.5625C24.0432 25.3125 24.5042 25.1347 24.8441 24.8182C25.184 24.5018 25.375 24.0726 25.375 23.625V3.375C25.375 2.92745 25.184 2.49822 24.8441 2.18176C24.5042 1.86529 24.0432 1.6875 23.5625 1.6875H5.4375C4.9568 1.6875 4.49578 1.86529 4.15587 2.18176C3.81596 2.49822 3.625 2.92745 3.625 3.375V5.0625H1.8125V3.375C1.8125 2.47989 2.19442 1.62145 2.87424 0.988515C3.55406 0.355579 4.47609 0 5.4375 0Z"
          fill="white"/>
    <path d="M1.8125 8.4375V7.59375C1.8125 7.36997 1.90798 7.15536 2.07793 6.99713C2.24789 6.83889 2.4784 6.75 2.71875 6.75C2.9591 6.75 3.18961 6.83889 3.35957 6.99713C3.52952 7.15536 3.625 7.36997 3.625 7.59375V8.4375H4.53125C4.7716 8.4375 5.00211 8.52639 5.17207 8.68463C5.34202 8.84286 5.4375 9.05747 5.4375 9.28125C5.4375 9.50503 5.34202 9.71964 5.17207 9.87787C5.00211 10.0361 4.7716 10.125 4.53125 10.125H0.90625C0.665898 10.125 0.435389 10.0361 0.265434 9.87787C0.0954797 9.71964 0 9.50503 0 9.28125C0 9.05747 0.0954797 8.84286 0.265434 8.68463C0.435389 8.52639 0.665898 8.4375 0.90625 8.4375H1.8125ZM1.8125 13.5V12.6562C1.8125 12.4325 1.90798 12.2179 2.07793 12.0596C2.24789 11.9014 2.4784 11.8125 2.71875 11.8125C2.9591 11.8125 3.18961 11.9014 3.35957 12.0596C3.52952 12.2179 3.625 12.4325 3.625 12.6562V13.5H4.53125C4.7716 13.5 5.00211 13.5889 5.17207 13.7471C5.34202 13.9054 5.4375 14.12 5.4375 14.3438C5.4375 14.5675 5.34202 14.7821 5.17207 14.9404C5.00211 15.0986 4.7716 15.1875 4.53125 15.1875H0.90625C0.665898 15.1875 0.435389 15.0986 0.265434 14.9404C0.0954797 14.7821 0 14.5675 0 14.3438C0 14.12 0.0954797 13.9054 0.265434 13.7471C0.435389 13.5889 0.665898 13.5 0.90625 13.5H1.8125ZM1.8125 18.5625V17.7188C1.8125 17.495 1.90798 17.2804 2.07793 17.1221C2.24789 16.9639 2.4784 16.875 2.71875 16.875C2.9591 16.875 3.18961 16.9639 3.35957 17.1221C3.52952 17.2804 3.625 17.495 3.625 17.7188V18.5625H4.53125C4.7716 18.5625 5.00211 18.6514 5.17207 18.8096C5.34202 18.9679 5.4375 19.1825 5.4375 19.4062C5.4375 19.63 5.34202 19.8446 5.17207 20.0029C5.00211 20.1611 4.7716 20.25 4.53125 20.25H0.90625C0.665898 20.25 0.435389 20.1611 0.265434 20.0029C0.0954797 19.8446 0 19.63 0 19.4062C0 19.1825 0.0954797 18.9679 0.265434 18.8096C0.435389 18.6514 0.665898 18.5625 0.90625 18.5625H1.8125Z"
          fill="white"/>
    <path d="M16 16.5714C16 16.4199 16.0702 16.2745 16.1953 16.1674C16.3203 16.0602 16.4899 16 16.6667 16H31.3333C31.5101 16 31.6797 16.0602 31.8047 16.1674C31.9298 16.2745 32 16.4199 32 16.5714C32 16.723 31.9298 16.8683 31.8047 16.9755C31.6797 17.0827 31.5101 17.1429 31.3333 17.1429H30V18.2857C30.0003 19.256 29.6803 20.2066 29.077 21.0277C28.4737 21.8487 27.6117 22.5068 26.5907 22.9257C26.204 23.0846 26 23.3566 26 23.6V24.4C26 24.6434 26.2053 24.9154 26.5907 25.0743C27.6117 25.4932 28.4737 26.1513 29.077 26.9723C29.6803 27.7934 30.0003 28.744 30 29.7143V30.8571H31.3333C31.5101 30.8571 31.6797 30.9173 31.8047 31.0245C31.9298 31.1317 32 31.277 32 31.4286C32 31.5801 31.9298 31.7255 31.8047 31.8326C31.6797 31.9398 31.5101 32 31.3333 32H16.6667C16.4899 32 16.3203 31.9398 16.1953 31.8326C16.0702 31.7255 16 31.5801 16 31.4286C16 31.277 16.0702 31.1317 16.1953 31.0245C16.3203 30.9173 16.4899 30.8571 16.6667 30.8571H18V29.7143C17.9997 28.744 18.3197 27.7934 18.923 26.9723C19.5263 26.1513 20.3883 25.4932 21.4093 25.0743C21.796 24.9154 22 24.6434 22 24.4V23.6C22 23.3566 21.7947 23.0846 21.4093 22.9257C20.3883 22.5068 19.5263 21.8487 18.923 21.0277C18.3197 20.2066 17.9997 19.256 18 18.2857V17.1429H16.6667C16.4899 17.1429 16.3203 17.0827 16.1953 16.9755C16.0702 16.8683 16 16.723 16 16.5714ZM19.3333 17.1429V18.2857C19.3331 19.0405 19.582 19.7799 20.0513 20.4186C20.5205 21.0572 21.1911 21.569 21.9853 21.8949C22.696 22.1874 23.3333 22.7989 23.3333 23.5989V24.4011C23.3333 25.2011 22.696 25.8126 21.9853 26.1051C21.1911 26.431 20.5205 26.9428 20.0513 27.5814C19.582 28.2201 19.3331 28.9595 19.3333 29.7143V30.8571H28.6667V29.7143C28.6669 28.9595 28.418 28.2201 27.9487 27.5814C27.4795 26.9428 26.8089 26.431 26.0147 26.1051C25.304 25.8126 24.6667 25.2023 24.6667 24.4011V23.5989C24.6667 22.7989 25.304 22.1874 26.0147 21.8949C26.8089 21.569 27.4795 21.0572 27.9487 20.4186C28.418 19.7799 28.6669 19.0405 28.6667 18.2857V17.1429H19.3333Z"
          fill="white"/>
</svg>
